<?xml version="1.0" encoding="UTF-8" standalone="no"?>
<!DOCTYPE svg PUBLIC "-//W3C//DTD SVG 1.1//EN" "http://www.w3.org/Graphics/SVG/1.1/DTD/svg11.dtd">
<svg xmlns:dc="http://purl.org/dc/elements/1.1/" version="1.1" xmlns:xl="http://www.w3.org/1999/xlink" xmlns="http://www.w3.org/2000/svg" viewBox="-539 760 164 180" width="164" height="180">
  <defs/>
  <metadata> Produced by OmniGraffle 7.16 
    <dc:date>2024-01-18 09:25:05 +0000</dc:date>
  </metadata>
  <g id="版面___3" fill-opacity="1" fill="none" stroke="none" stroke-opacity="1" stroke-dasharray="none">
    <title>版面 3</title>
    <g id="版面___3: 图层 1">
      <title>图层 1</title>
      <g id="Graphic_6">
        <path d="M -492 786.4849 L -492 913.0151 C -492 927.6423 -502.5213 939.5 -515.5 939.5 C -528.4787 939.5 -539 927.6423 -539 913.0151 L -539 786.4849 C -539 771.8577 -528.4787 760 -515.5 760 C -502.5213 760 -492 771.8577 -492 786.4849 Z" fill="#82ddec"/>
      </g>
      <g id="Graphic_5">
        <path d="M -375 786.4849 L -375 913.0151 C -375 927.6423 -385.5213 939.5 -398.5 939.5 C -411.4787 939.5 -422 927.6423 -422 913.0151 L -422 786.4849 C -422 771.8577 -411.4787 760 -398.5 760 C -385.5213 760 -375 771.8577 -375 786.4849 Z" fill="#fbbc17"/>
      </g>
      <g id="Graphic_4">
        <path d="M -433.5 791.1023 L -433.5 822.8972 C -433.5 836.2087 -444.0213 846.9997 -457 846.9997 C -469.9787 846.9997 -480.5 836.2087 -480.5 822.8972 L -480.5 791.1023 C -480.5 777.7908 -469.9787 766.9997 -457 766.9997 C -444.0213 766.9997 -433.5 777.7908 -433.5 791.1023 Z" fill="#615dff"/>
      </g>
    </g>
  </g>
</svg>
